<svg
    width="1024"
    height="237"
    viewBox="0 0 1024 237"
    fill="none"
    xmlns="http://www.w3.org/2000/svg"
>
    <g clip-path="url(#clip0_207_2)">
        <mask
            id="mask0_207_2"
            style="mask-type: luminance"
            maskUnits="userSpaceOnUse"
            x="0"
            y="0"
            width="1024"
            height="237"
        >
            <path d="M1024 0H0V236.768H1024V0Z" fill="white" />
        </mask>
        <g mask="url(#mask0_207_2)">
            <path
                d="M351.571 236.691H435.756L393.667 198.988L351.571 236.691ZM614.921 236.691H671.942L582.646 156.489H611.084C623.926 156.475 636.239 151.367 645.32 142.286C654.401 133.205 659.509 120.893 659.523 108.05V48.4391C659.509 35.5965 654.401 23.2836 645.32 14.2025C636.239 5.12133 623.926 0.0135758 611.084 0H351.528L393.684 37.9085H611.084C613.875 37.913 616.551 39.024 618.524 40.9979C620.499 42.9718 621.609 45.6477 621.614 48.4391V108.05C621.612 110.842 620.501 113.52 618.527 115.494C616.552 117.469 613.875 118.578 611.084 118.581H483.494L614.921 236.691Z"
                fill="white"
            />
            <path
                d="M0 118.572L364.059 144.164C390.633 146.036 416.694 136.676 435.354 118.572C416.438 100.622 390.684 91.5192 364.486 93.3313L0 118.572Z"
                fill="#E42727"
            />
        </g>
    </g>
    <defs>
        <clipPath id="clip0_207_2">
            <rect width="1024" height="236.768" fill="white" />
        </clipPath>
    </defs>
</svg>
